<svg width="267" height="48" xmlns="http://www.w3.org/2000/svg" xmlns:xlink="http://www.w3.org/1999/xlink" overflow="hidden"><defs><clipPath id="clip0"><rect x="0" y="0" width="267" height="48"/></clipPath></defs><g clip-path="url(#clip0)"><path d="M93.7706 184.141 98.6959 184.141 98.6959 193.591C97.372 194.574 95.8854 195.317 94.3041 195.785 92.6767 196.29 90.983 196.548 89.2793 196.551 87.0111 196.587 84.77 196.055 82.7595 195.004 80.8801 194.019 79.3094 192.533 78.22 190.712 76.0217 186.868 76.0217 182.147 78.22 178.302 79.3151 176.474 80.8988 174.988 82.7926 174.01 84.8279 172.959 87.0916 172.428 89.3818 172.464 91.2874 172.436 93.1798 172.787 94.9491 173.495 96.5639 174.147 98.0002 175.174 99.139 176.491L95.6816 179.683C94.141 177.984 91.9463 177.027 89.6531 177.055 88.2756 177.029 86.9137 177.349 85.6924 177.986 84.5617 178.587 83.6267 179.499 82.9976 180.614 81.7114 183.038 81.7114 185.943 82.9976 188.367 83.6264 189.481 84.5545 190.397 85.6773 191.011 86.8797 191.66 88.2298 191.987 89.5958 191.96 91.0538 191.982 92.494 191.639 93.7856 190.962Z" fill="#1D1D1B" transform="matrix(1 0 0 1.00177 -48.9003 -172.7)"/><path d="M118.524 196.15 114.032 189.663 109.074 189.663 109.074 196.15 103.69 196.15 103.69 172.865 113.773 172.865C115.617 172.822 117.448 173.173 119.145 173.896 122.12 175.134 124.011 178.093 123.886 181.314 124.012 184.533 122.09 187.481 119.093 188.665L124.317 196.15ZM117.158 178.302C116.316 177.603 115.085 177.253 113.466 177.253L109.074 177.253 109.074 185.377 113.466 185.377C115.085 185.377 116.316 185.022 117.158 184.313 118 183.604 118.422 182.606 118.424 181.32 118.424 180.005 118.002 179 117.158 178.302Z" fill="#1D1D1B" transform="matrix(1 0 0 1.00177 -48.9003 -172.7)"/><path d="M146.167 191.827 146.167 196.15 128.136 196.15 128.136 172.865 145.736 172.865 145.736 177.187 133.492 177.187 133.492 182.245 144.305 182.245 144.305 186.438 133.492 186.438 133.492 191.827Z" fill="#1D1D1B" transform="matrix(1 0 0 1.00177 -48.9003 -172.7)"/><path d="M168.497 191.827 168.497 196.15 150.46 196.15 150.46 172.865 168.06 172.865 168.06 177.187 155.816 177.187 155.816 182.245 166.628 182.245 166.628 186.438 155.816 186.438 155.816 191.827Z" fill="#1D1D1B" transform="matrix(1 0 0 1.00177 -48.9003 -172.7)"/><path d="M194.139 172.865 194.139 196.15 189.714 196.15 178.107 182.013 178.107 196.15 172.783 196.15 172.783 172.865 177.238 172.865 188.816 187.002 188.816 172.865Z" fill="#1D1D1B" transform="matrix(1 0 0 1.00177 -48.9003 -172.7)"/><path d="M201.976 195.8C200.487 195.413 199.082 194.754 197.832 193.856L199.661 189.796C200.746 190.57 201.948 191.166 203.221 191.559 204.553 191.997 205.946 192.222 207.348 192.225 208.879 192.225 210.01 191.998 210.742 191.544 211.413 191.19 211.835 190.495 211.839 189.736 211.847 189.2 211.608 188.691 211.191 188.355 210.698 187.958 210.133 187.659 209.527 187.475 208.849 187.252 207.936 187.008 206.781 186.742 205.306 186.407 203.851 185.985 202.426 185.479 201.298 185.061 200.296 184.362 199.514 183.448 198.71 182.515 198.308 181.274 198.308 179.722 198.288 178.41 198.668 177.124 199.396 176.033 200.224 174.858 201.376 173.95 202.712 173.419 204.189 172.776 205.991 172.455 208.119 172.455 209.589 172.453 211.053 172.632 212.478 172.988 213.791 173.303 215.046 173.822 216.198 174.526L214.534 178.619C212.58 177.454 210.355 176.823 208.08 176.789 206.569 176.789 205.455 177.033 204.737 177.522 204.06 177.928 203.649 178.661 203.655 179.451 203.655 180.255 204.071 180.847 204.903 181.229 206.131 181.741 207.408 182.126 208.713 182.378 210.189 182.712 211.644 183.135 213.069 183.644 214.19 184.056 215.191 184.742 215.981 185.639 216.785 186.546 217.186 187.776 217.186 189.332 217.197 190.631 216.808 191.902 216.071 192.973 215.233 194.148 214.071 195.056 212.728 195.586 211.243 196.229 209.435 196.551 207.303 196.551 205.501 196.555 203.707 196.302 201.976 195.8Z" fill="#1D1D1B" transform="matrix(1 0 0 1.00177 -48.9003 -172.7)"/><path d="M236.342 173.896C239.318 175.133 241.209 178.093 241.08 181.314 241.116 182.893 240.689 184.448 239.851 185.787 238.998 187.09 237.777 188.111 236.342 188.717 234.641 189.427 232.81 189.772 230.968 189.729L226.277 189.729 226.277 196.15 220.888 196.15 220.888 172.865 230.968 172.865C232.812 172.822 234.644 173.173 236.342 173.896ZM234.362 184.292C235.202 183.592 235.622 182.6 235.625 181.314 235.627 180.027 235.206 179.023 234.362 178.299 233.518 177.6 232.287 177.25 230.669 177.25L226.277 177.25 226.277 185.335 230.669 185.335C232.289 185.337 233.52 184.989 234.362 184.292Z" fill="#1D1D1B" transform="matrix(1 0 0 1.00177 -48.9003 -172.7)"/><path d="M259.079 191.161 248.266 191.161 246.205 196.15 240.682 196.15 251.061 172.865 256.384 172.865 266.798 196.15 261.143 196.15ZM257.382 187.068 253.689 178.143 249.997 187.059Z" fill="#1D1D1B" transform="matrix(1 0 0 1.00177 -48.9003 -172.7)"/><path d="M284.064 196.15 279.572 189.663 274.614 189.663 274.614 196.15 269.225 196.15 269.225 172.865 279.307 172.865C281.151 172.822 282.982 173.173 284.679 173.896 287.654 175.134 289.545 178.093 289.42 181.314 289.545 184.532 287.625 187.479 284.63 188.665L289.851 196.15ZM282.698 178.302C281.858 177.603 280.627 177.253 279.006 177.253L274.614 177.253 274.614 185.377 279.006 185.377C280.624 185.377 281.854 185.022 282.698 184.313 283.542 183.604 283.964 182.606 283.964 181.32 283.964 180.005 283.542 179 282.698 178.302Z" fill="#1D1D1B" transform="matrix(1 0 0 1.00177 -48.9003 -172.7)"/><path d="M302.161 187.002 299.033 190.263 299.033 196.15 293.676 196.15 293.676 172.865 299.033 172.865 299.033 183.743 309.347 172.865 315.334 172.865 305.688 183.243 315.894 196.15 309.607 196.15Z" fill="#1D1D1B" transform="matrix(1 0 0 1.00177 -48.9003 -172.7)"/><path d="M116.739 215.721 107.546 215.721 105.641 220.041 103.088 220.041 110.925 202.739 113.372 202.739 121.24 220.041 118.644 220.041ZM115.874 213.741 112.13 205.271 108.411 213.741Z" fill="#1D1D1B" transform="matrix(1 0 0 1.00177 -48.9003 -172.7)"/><path d="M144.498 202.742 144.498 220.041 142.469 220.041 132.088 207.14 132.088 220.041 129.613 220.041 129.613 202.739 131.642 202.739 142.023 215.643 142.023 202.742Z" fill="#1D1D1B" transform="matrix(1 0 0 1.00177 -48.9003 -172.7)"/><path d="M166.52 215.721 157.326 215.721 155.421 220.041 152.877 220.041 160.714 202.739 163.162 202.739 171.017 220.041 168.422 220.041ZM165.655 213.741 161.923 205.271 158.191 213.741Z" fill="#1D1D1B" transform="matrix(1 0 0 1.00177 -48.9003 -172.7)"/><path d="M179.397 202.742 181.868 202.742 181.868 217.895 191.237 217.895 191.237 220.041 179.397 220.041Z" fill="#1D1D1B" transform="matrix(1 0 0 1.00177 -48.9003 -172.7)"/><path d="M204.707 214.064 204.707 220.041 202.257 220.041 202.257 214.012 195.384 202.739 198.037 202.739 203.574 211.86 209.135 202.739 211.58 202.739Z" fill="#1D1D1B" transform="matrix(1 0 0 1.00177 -48.9003 -172.7)"/><path d="M223.121 204.894 217.189 204.894 217.189 202.742 231.495 202.742 231.495 204.894 225.569 204.894 225.569 220.041 223.121 220.041Z" fill="#1D1D1B" transform="matrix(1 0 0 1.00177 -48.9003 -172.7)"/><path d="M240.001 202.742 242.473 202.742 242.473 220.041 240.001 220.041Z" fill="#1D1D1B" transform="matrix(1 0 0 1.00177 -48.9003 -172.7)"/><path d="M256.513 219.094C255.153 218.359 254.021 217.264 253.24 215.929 251.656 213.113 251.656 209.675 253.24 206.86 254.022 205.522 255.159 204.426 256.525 203.695 257.973 202.921 259.593 202.53 261.234 202.558 262.502 202.543 263.761 202.773 264.941 203.236 266.041 203.675 267.023 204.366 267.808 205.253L266.201 206.808C264.945 205.462 263.174 204.716 261.333 204.759 260.116 204.74 258.916 205.039 257.849 205.624 256.832 206.178 255.989 207.003 255.413 208.008 254.244 210.123 254.244 212.69 255.413 214.805 255.989 215.81 256.832 216.635 257.849 217.189 258.918 217.771 260.119 218.065 261.336 218.042 263.182 218.079 264.954 217.323 266.204 215.966L267.811 217.524C267.02 218.413 266.035 219.107 264.932 219.553 263.749 220.024 262.486 220.258 261.213 220.243 259.574 220.269 257.955 219.874 256.513 219.094Z" fill="#1D1D1B" transform="matrix(1 0 0 1.00177 -48.9003 -172.7)"/><path d="M278.352 219.637C277.3 219.323 276.327 218.789 275.497 218.07L276.401 216.14C277.145 216.782 278.006 217.274 278.936 217.587 279.962 217.959 281.044 218.146 282.135 218.142 283.569 218.142 284.64 217.899 285.348 217.412 286.018 216.997 286.422 216.26 286.412 215.471 286.432 214.929 286.221 214.404 285.83 214.027 285.42 213.643 284.932 213.352 284.398 213.174 283.828 212.973 283.024 212.75 281.987 212.505 280.911 212.264 279.853 211.951 278.819 211.568 278.028 211.26 277.324 210.763 276.769 210.121 276.199 209.47 275.914 208.593 275.916 207.489 275.906 206.604 276.16 205.735 276.646 204.994 277.196 204.199 277.964 203.581 278.858 203.212 280.026 202.739 281.282 202.516 282.542 202.558 283.559 202.558 284.573 202.691 285.556 202.953 286.463 203.174 287.325 203.55 288.103 204.065L287.286 206.043C286.566 205.584 285.783 205.23 284.962 204.994 284.179 204.761 283.367 204.641 282.551 204.635 281.144 204.635 280.093 204.89 279.398 205.401 278.736 205.84 278.341 206.584 278.349 207.378 278.331 207.925 278.551 208.452 278.952 208.825 279.377 209.212 279.878 209.506 280.422 209.69 281.206 209.951 282.003 210.169 282.81 210.344 283.869 210.592 284.91 210.911 285.927 211.3 286.711 211.608 287.41 212.099 287.967 212.731 288.563 213.461 288.866 214.386 288.817 215.327 288.824 216.21 288.566 217.075 288.076 217.81 287.518 218.613 286.736 219.233 285.827 219.592 284.649 220.06 283.387 220.283 282.12 220.246 280.839 220.249 279.566 220.043 278.352 219.637Z" fill="#1D1D1B" transform="matrix(1 0 0 1.00177 -48.9003 -172.7)"/><path d="M63.1487 196.261 63.1487 194.486C63.1487 194.372 63.058 194.278 62.9437 194.275L48.9938 193.919C48.9437 193.918 48.9021 193.957 48.9003 194.007 48.9003 194.008 48.9003 194.009 48.9003 194.01L48.9003 196.774C48.9003 196.824 48.9407 196.864 48.9907 196.864 48.9916 196.864 48.9929 196.864 48.9938 196.864L62.9437 196.472C63.0574 196.468 63.1472 196.375 63.1487 196.261Z" fill="#3BAE67" transform="matrix(1 0 0 1.00177 -48.9003 -172.7)"/><path d="M64.472 200.186 63.6009 198.64C63.543 198.54 63.4152 198.505 63.3145 198.561L51.0555 205.226C51.0121 205.251 50.9973 205.306 51.0224 205.349 51.0224 205.349 51.0224 205.349 51.0224 205.349L52.4059 207.761C52.4297 207.803 52.4831 207.817 52.525 207.794 52.5265 207.793 52.528 207.792 52.5295 207.791L64.4147 200.475C64.5094 200.411 64.5347 200.282 64.472 200.186Z" fill="#3BAE67" transform="matrix(1 0 0 1.00177 -48.9003 -172.7)"/><path d="M63.6009 192.12 64.487 190.583C64.5446 190.484 64.5124 190.358 64.4147 190.299L52.4662 182.987C52.452 182.972 52.4291 182.972 52.4149 182.987 52.4149 182.987 52.4149 182.987 52.4149 182.987L50.9771 185.476C50.9645 185.491 50.9645 185.513 50.9771 185.528L63.3024 192.186C63.3992 192.251 63.5303 192.225 63.5951 192.129 63.5972 192.126 63.599 192.123 63.6009 192.12Z" fill="#3BAE67" transform="matrix(1 0 0 1.00177 -48.9003 -172.7)"/><path d="M67.6279 203.336 66.0906 202.45C65.9939 202.391 65.8679 202.422 65.8091 202.519 65.8085 202.52 65.8079 202.521 65.8073 202.522L58.5218 214.422C58.4956 214.465 58.5089 214.521 58.5514 214.547 58.5526 214.547 58.5538 214.548 58.555 214.549L60.9483 215.932C60.9932 215.957 61.0499 215.941 61.0749 215.896L67.7063 203.619C67.7611 203.519 67.7265 203.393 67.6279 203.336Z" fill="#3BAE67" transform="matrix(1 0 0 1.00177 -48.9003 -172.7)"/><path d="M66.1479 188.506 67.6852 187.62C67.7837 187.562 67.8184 187.436 67.7635 187.336L61.096 175.071C61.0743 175.03 61.0231 175.014 60.9821 175.036 60.9809 175.037 60.9797 175.037 60.9785 175.038L58.567 176.425C58.5239 176.45 58.5098 176.505 58.5351 176.548 58.5357 176.549 58.5363 176.55 58.5369 176.551L65.8525 188.433C65.9086 188.533 66.0355 188.569 66.1355 188.513 66.1398 188.511 66.144 188.508 66.1479 188.506Z" fill="#3BAE67" transform="matrix(1 0 0 1.00177 -48.9003 -172.7)"/></g></svg>