<svg width="266" height="64" viewBox="0 0 266 64" fill="none" xmlns="http://www.w3.org/2000/svg"><path fill-rule="evenodd" clip-rule="evenodd" d="M34.964.863L33.49 3.572 31.95 6.4 10.99 42.228l-3.136 5.364L0 61.018l4.388 2.8 6.714-11.477 2.852-4.873 21.01-35.917 21.01 35.917 2.851 4.873 6.714 11.477 4.389-2.8-7.854-13.426-3.138-5.364L37.977 6.4l-1.539-2.828L34.964.863z" fill="#2E61D2"/><path fill-rule="evenodd" clip-rule="evenodd" d="M13.954 47.468a27.793 27.793 0 0 1-2.963-5.24l-3.137 5.363a32.99 32.99 0 0 0 3.247 4.751c5.764 7.02 14.313 11.477 23.863 11.477 9.549 0 18.096-4.456 23.86-11.478a32.908 32.908 0 0 0 3.248-4.751l-3.137-5.362a27.787 27.787 0 0 1-2.962 5.239c-4.8 6.662-12.431 10.978-21.01 10.978-8.579 0-16.21-4.315-21.01-10.977z" fill="#000" fill-opacity=".3"/><path fill-rule="evenodd" clip-rule="evenodd" d="M91.483 11.474L86.08 26.788h3.808l1.233-3.513h4.62l1.233 3.513h3.765l-5.382-15.315-3.874.001zM93.4 15.03l1.425 5.045H92.08l1.32-5.045zm25.614 8.446c-1.34 2.111-3.617 3.511-6.233 3.511-4.128 0-7.468-3.534-7.468-7.845 0-4.356 3.34-7.868 7.468-7.868 1.24 0 2.461.321 3.553.934a7.609 7.609 0 0 1 2.701 2.578c.255-.201-2.957 2.155-2.957 2.155a3.955 3.955 0 0 0-1.407-1.413 3.767 3.767 0 0 0-1.89-.52c-2.17 0-3.873 1.844-3.873 4.133 0 2.29 1.702 4.112 3.873 4.112a3.778 3.778 0 0 0 1.897-.508 3.968 3.968 0 0 0 1.421-1.403l2.915 2.134zm19.296 0c-1.341 2.111-3.617 3.511-6.234 3.511-4.128 0-7.468-3.534-7.468-7.845 0-4.356 3.34-7.868 7.468-7.868 1.241 0 2.462.321 3.553.934a7.603 7.603 0 0 1 2.702 2.578c.255-.201-2.957 2.155-2.957 2.155a3.962 3.962 0 0 0-1.407-1.413 3.767 3.767 0 0 0-1.891-.52c-2.17 0-3.872 1.844-3.872 4.133 0 2.29 1.702 4.112 3.872 4.112a3.781 3.781 0 0 0 1.898-.508 3.968 3.968 0 0 0 1.421-1.403l2.915 2.134zm13.061-.223c2.17 0 3.915-1.822 3.915-4.112 0-2.289-1.745-4.133-3.914-4.133-2.17 0-3.872 1.844-3.872 4.133 0 2.29 1.7 4.112 3.871 4.112zm.001-11.979c4.17 0 7.488 3.512 7.488 7.868 0 4.31-3.319 7.845-7.488 7.845-4.128 0-7.468-3.534-7.468-7.845 0-4.356 3.34-7.868 7.468-7.868zm14.019 9.934v-9.734h3.574v9.734c0 1.379 1.106 2.29 2.213 2.29 1.106 0 2.212-.911 2.212-2.29v-9.734h3.575v9.734c0 3.535-2.745 5.778-5.787 5.778s-5.787-2.243-5.787-5.778zm30.082-9.734v15.313h-3.106l-4.49-8.356v8.355h-3.552V11.475h3.212l4.383 8.245v-8.245h3.553zm6.468 3.245v-3.245h11.127v3.245h-3.787v12.069h-3.553V14.719h-3.787zm20.593 5.356h2.744l-1.425-5.045-1.32 5.045h.001zm3.659 3.2h-4.617l-1.234 3.513h-3.808l5.404-15.315h3.872l5.383 15.315h-3.766l-1.234-3.513zm21.806-11.801v15.313h-3.106l-4.489-8.356v8.355h-3.553V11.475h3.213l4.382 8.245v-8.245h3.553zm6.467 3.245v-3.245h11.128v3.245h-3.788v12.069h-3.552V14.719h-3.788zM93.66 49.93c2.17 0 3.915-1.823 3.915-4.113 0-2.289-1.745-4.133-3.915-4.133s-3.872 1.844-3.872 4.133c0 2.29 1.702 4.112 3.872 4.112zm0-11.98c4.17 0 7.489 3.51 7.489 7.868 0 4.311-3.32 7.846-7.489 7.846-4.128 0-7.467-3.535-7.467-7.846 0-4.357 3.34-7.868 7.467-7.868zm25.338.2v15.313h-3.108l-4.489-8.357v8.357h-3.551V38.15h3.212l4.383 8.246V38.15h3.553zm7.53 15.314V38.148h3.596v12.07h5.276v3.245h-8.872zm15.275-.001h3.554V38.15h-3.554v15.312zm22.232-15.313v15.313h-3.106l-4.489-8.357v8.357h-3.553V38.15h3.213l4.382 8.246V38.15h3.553zm7.531 15.314V38.148h9.51v3.245h-5.957v2.935h5.234v3.177h-5.234v2.712h6.15v3.246h-9.703z" fill="#000"/></svg>